<?xml version="1.0" encoding="UTF-8"?>
<svg width="23px" height="24px" viewBox="0 0 23 24" version="1.1" xmlns="http://www.w3.org/2000/svg" xmlns:xlink="http://www.w3.org/1999/xlink">
    <title>Logo/Google_SuperG/Icon</title>
    <g id="assets-for-dev" stroke="none" stroke-width="1" fill="none" fill-rule="evenodd">
        <g id="Group" transform="translate(-1.000000, -1.000000)">
            <g id="Group" transform="translate(1.465220, 1.465220)">
                <path d="M22.4028867,11.6884626 C22.4028867,10.8780625 22.3340546,10.097533 22.2028841,9.3507701 L11.428719,9.3507701 L11.428719,13.7664115 L17.5807465,13.7664115 C17.315808,15.1950014 16.514499,16.4119002 15.3001976,17.2261965 L15.3001976,20.0989608 L19.0015441,20.0989608 C21.1613122,18.1093248 22.4028867,15.1664296 22.4028867,11.6884626 L22.4028867,11.6884626 Z" id="Shape" fill="#4285F4" fill-rule="nonzero"></path>
                <path d="M15.3014963,17.2261965 C14.2794052,17.9119196 12.9651025,18.3119248 11.428719,18.3119248 C8.45465463,18.3119248 5.93124542,16.3054054 5.02993508,13.6014743 L1.21560011,13.6014743 L1.21560011,16.5612528 C3.09614388,20.296366 6.96242757,22.857438 11.428719,22.857438 C14.5131744,22.857438 17.1106106,21.8444379 19.0028428,20.0989608 L15.3014963,17.2261965 Z" id="Shape" fill="#34A853" fill-rule="nonzero"></path>
                <path d="M4.67538505,11.428719 C4.67538505,10.6728651 4.8013607,9.94168682 5.02993508,9.25596368 L5.02993508,6.29488648 L1.21560011,6.29488648 C0.438966707,7.83906227 0,9.58194191 0,11.428719 C0,13.2754961 0.438966707,15.0183758 1.21560011,16.5625515 L5.02993508,13.6027731 C4.8013607,12.9157512 4.67538505,12.1845729 4.67538505,11.428719 Z" id="Shape" fill="#FBBC05" fill-rule="nonzero"></path>
                <path d="M11.428719,4.54551324 C13.1079615,4.54551324 14.6131757,5.12344278 15.800204,6.25462622 L19.075571,2.97925925 C17.0950259,1.13248216 14.5118757,0 11.428719,0 C6.96242757,0 3.09614388,2.56107203 1.21560011,6.29488648 L5.02993508,9.25466496 C5.93124542,6.55203266 8.45465463,4.54551324 11.428719,4.54551324 Z" id="Shape" fill="#EA4335" fill-rule="nonzero"></path>
                <polygon id="Shape" points="0 0 22.857438 0 22.857438 22.857438 0 22.857438"></polygon>
            </g>
        </g>
    </g>
</svg>